<svg width="800" height="173" viewBox="0 0 800 173" fill="none" xmlns="http://www.w3.org/2000/svg">
<path fill-rule="evenodd" clip-rule="evenodd" d="M72.195 119.235C72.2873 131.726 72.6815 143.961 54.0659 147.443C45.0912 149.12 37.5587 147.832 31.6586 145.751L5.54047 158.424L5.38253 158.691C13.0464 169.216 38.5698 173.268 53.486 171.94C72.7726 170.223 86.1752 163.178 94.072 151.283C102.998 137.834 100.521 114.542 100.521 96.3867C100.521 76.4614 101.329 54.8139 100.464 35.1042L72.285 35.0615L72.1708 44.6576C61.8093 32.4112 41.1394 28.0282 23.3019 37.4456C16.272 41.1576 10.5667 46.9886 6.67368 53.9781C-2.15572 69.8293 -2.09693 92.0198 6.09612 108.187C18.0646 131.801 51.9585 137.429 67.9043 123.135C69.094 122.07 71.2175 119.759 72.195 119.238V119.235ZM47.5064 59.4966C20.8556 63.8047 26.0248 109.662 55.274 104C81.2135 98.9782 76.3555 54.8335 47.5064 59.4966Z" fill="#FEFEFE"/>
<path fill-rule="evenodd" clip-rule="evenodd" d="M244.316 44.8944L244.281 35.0609H215.475L215.422 128.563H244.874C244.874 114.702 244.874 100.841 244.874 86.9802C244.874 77.3566 242.739 60.4667 259.525 60.1681C276.593 59.8649 274.333 76.4977 274.333 86.9802C274.333 100.842 274.333 114.703 274.333 128.563H304.171C304.171 114.867 304.171 101.17 304.171 87.4748C304.171 78.0886 301.78 60.771 318.43 60.1819C335.709 59.5709 333.442 76.6787 333.442 86.9802C333.442 100.792 333.442 114.604 333.442 128.417L363.276 128.55C363.276 113.897 363.276 99.4491 363.276 84.9997C363.276 70.216 364.542 58.2809 357.622 46.8023C352.562 38.4075 342.164 31.961 327.835 32.4717C313.196 32.9916 305.121 39.8347 300.218 48.8786C298.231 47.3661 297.416 44.7953 295.717 42.8828C282.866 28.4069 257.001 29.592 246.664 41.9248C245.614 43.1779 245.676 43.6667 244.315 44.8956L244.316 44.8944Z" fill="#FEFEFE"/>
<path fill-rule="evenodd" clip-rule="evenodd" d="M178.986 119.018V128.563L208.254 128.555L208.253 35.0677L179.056 35.062L178.939 44.6753C176.836 42.2867 173.257 39.2179 170.197 37.4229C166.759 35.4032 162.467 33.7639 157.784 32.9765C130.757 28.4367 106.416 48.4519 106.23 81.5331C105.95 131.549 155.245 140.455 174.589 123.1C176.475 121.409 177.063 119.964 178.987 119.019L178.986 119.018ZM153.435 59.6042C126.799 64.3965 132.606 110.268 162.369 103.905C188.584 98.2984 182.485 54.3774 153.435 59.6042Z" fill="#FEFEFE"/>
<path fill-rule="evenodd" clip-rule="evenodd" d="M458.57 116.706C457.388 114.099 453.521 109.154 451.718 106.722C450.47 105.04 449.39 103.577 448.142 101.896C446.806 100.097 445.824 98.3386 444.239 96.7327L441.958 98.56C435.077 103.817 427.243 105.879 418.287 105.01C408.342 104.046 400.027 98.3962 398.997 89.0342H463.795C466.813 60.8756 453.148 39.6235 430.998 33.9043C407.775 27.9086 381.676 37.6083 372.252 61.5166C363.379 84.0241 369.585 112.161 390.663 124.226C400.91 130.091 414.431 132.423 427.944 130.69C434.295 129.876 440.077 128.265 445.337 125.71C455.077 120.981 455.167 118.799 458.57 116.706ZM399.524 70.6054H434.34C432.929 52.0093 403.65 50.5683 399.524 70.6054Z" fill="#FEFEFE"/>
<path fill-rule="evenodd" clip-rule="evenodd" d="M537.514 118.527L527.575 167.107L559.644 151.073L584.168 33.8226L555.334 33.7984L553.233 43.467C547.609 37.8862 542.666 33.509 532.007 31.8605C491.236 25.558 464.336 68.8866 474.064 102.619C481.491 128.373 508.243 135.14 527.874 125.599C532.377 123.411 534.537 120.948 537.514 118.527ZM523.08 57.7435C510.95 59.2294 503.119 68.7159 501.982 81.4027C499.298 111.312 541.777 111.553 545.048 79.7945C546.494 65.7659 537.031 56.0338 523.08 57.7435Z" fill="#FEFEFE"/>
<path fill-rule="evenodd" clip-rule="evenodd" d="M634.803 118.945L633.094 127.16L661.036 127.292L679.974 33.8595L651.483 33.8099C648.54 46.9774 645.997 60.2463 643.274 73.2996C640.461 86.7852 639.378 100.749 624.783 102.272C617.146 103.069 611.465 100.156 610.059 93.8082C608.433 86.474 619.636 45.3254 620.749 33.7996H592.408C589.71 45.7174 587.412 57.9061 584.966 69.8734C582.839 80.2718 577.936 97.4395 580.068 107.901C585.179 132.991 616.058 135.324 631.695 121.563C633.167 120.268 633.208 119.831 634.805 118.944L634.803 118.945Z" fill="#FEFEFE"/>
<path fill-rule="evenodd" clip-rule="evenodd" d="M743.63 33.6772L726.476 33.8097L721.563 58.3785L738.552 58.5122C737.077 68.4034 734.354 78.9401 732.419 88.7644C730.256 99.7438 727.886 110.555 734.089 119.616C742.16 131.404 762.288 131.828 776.301 127.199C779.802 126.042 786.208 123.186 788.092 120.863L782.347 99.6816C773.018 104.451 756.602 108.489 760.218 91.2752C762.437 80.7155 765.226 69.0409 766.911 58.5019L795.118 58.4915L799.997 33.8236L772.129 33.7775L778.867 0L749.538 13.3254C746.451 14.7399 747.128 15.6091 746.458 19.0895C745.508 24.0201 744.424 28.78 743.628 33.6749L743.63 33.6772Z" fill="#FEFEFE"/>
<path fill-rule="evenodd" clip-rule="evenodd" d="M669.286 127.289L697.846 127.301L717.161 33.8226L688.719 33.7996L669.286 127.289Z" fill="#FEFEFE"/>
<path fill-rule="evenodd" clip-rule="evenodd" d="M688.396 31.6334L720.462 14.8184L723.734 0.804817L695.233 0.703369L688.396 31.6334Z" fill="#C6FF02"/>
</svg>
